<?xml version="1.0" standalone="no"?><!DOCTYPE svg PUBLIC "-//W3C//DTD SVG 1.1//EN" "http://www.w3.org/Graphics/SVG/1.1/DTD/svg11.dtd"><svg t="1728183387508" class="icon" viewBox="0 0 1024 1024" version="1.1" xmlns="http://www.w3.org/2000/svg" p-id="5193" xmlns:xlink="http://www.w3.org/1999/xlink" width="200" height="200"><path d="M322.56 865.28V0h481.28v225.28H1024v640H322.56z m92.16-512h512v-30.72h-512v30.72z m0 128h512v-35.84h-512v35.84z m0 128h512v-30.72h-512v30.72z m0 128h512v-30.72h-512v30.72zM834.56 0h20.48L1024 158.72v30.72h-189.44V0zM286.72 896h414.72V1024H0V158.72h286.72v322.56H97.28v30.72h189.44v97.28H97.28v30.72h189.44v97.28H97.28v30.72h189.44v97.28H97.28v30.72h189.44z" fill="#2c2c2c" p-id="5194"></path></svg>