<?xml version="1.0" standalone="no"?><!DOCTYPE svg PUBLIC "-//W3C//DTD SVG 1.1//EN" "http://www.w3.org/Graphics/SVG/1.1/DTD/svg11.dtd"><svg t="1728183507352" class="icon" viewBox="0 0 1256 1024" version="1.1" xmlns="http://www.w3.org/2000/svg" p-id="11355" xmlns:xlink="http://www.w3.org/1999/xlink" width="245.3125" height="200"><path d="M1253.929891 343.738182c7.354182 21.969455 0 51.2-14.754909 80.477091-14.708364 14.615273-22.109091 29.230545-29.463273 29.230545-6.981818 6.935273-26.996364 26.810182-66.327273 53.573818v12.288c0 138.984727-51.618909 263.307636-147.409454 358.4C892.783709 972.8 767.4368 1024 627.428073 1024c-103.191273 0-199.028364-29.277091-280.110546-80.477091-76.8-48.500364-140.334545-116.642909-178.129454-198.283636a142.196364 142.196364 0 0 1-35.607273-6.516364c-66.327273-7.307636-110.545455-29.230545-125.300364-65.815273-29.463273-58.507636 29.509818-117.015273 36.864-124.369454a35.84 35.84 0 0 1 51.572364 0 35.002182 35.002182 0 0 1 3.677091 47.057454l-3.677091 4.189091c-14.708364 14.615273-29.463273 36.538182-22.109091 43.845818 0 0 29.509818 58.507636 361.192727 7.307637 316.928-43.845818 501.201455-117.015273 604.392728-168.215273 14.708364-7.307636 36.817455-14.615273 51.572363-29.230545 41.425455-27.461818 57.018182-42.030545 64.884364-43.752728l1.442909-0.139636c14.754909-14.661818 22.109091-29.277091 29.509818-36.584727-7.400727 0-22.109091-7.307636-51.618909-7.307637-22.109091 0-36.864-14.661818-36.864-36.584727 0-21.969455 14.754909-36.584727 36.864-36.584727 22.109091 0 95.837091 0 117.946182 51.2z m-508.602182 438.923636l-36.817454 58.461091c0 7.307636-7.400727 14.615273-14.75491 14.615273l-73.728 21.969454-64.512 74.752c23.458909 3.723636 47.476364 5.725091 71.912728 5.725091a440.971636 440.971636 0 0 0 196.282182-45.893818l-78.382546-129.675636z m323.304727-233.239273l-1.396363 0.698182c-112.872727 56.878545-301.242182 124.974545-609.326546 166.632728-89.832727 17.826909-155.275636 26.018909-212.247272 28.439272a449.349818 449.349818 0 0 0 252.50909 194.094546l85.038546-105.472c0-7.307636 7.354182-7.307636 14.708364-7.307637l66.373818-21.969454 51.572363-95.045818c7.354182-7.354182 14.754909-14.661818 22.109091-14.661819 7.400727 0 22.109091 7.354182 22.109091 14.661819l109.474909 176.546909c112.314182-73.402182 189.346909-196.235636 199.074909-336.616728zM620.027345 0c77.730909 0 155.461818 19.269818 229.28291 53.853091a20.061091 20.061091 0 0 1 20.154181 9.774545c10.24 5.352727 20.48 10.938182 30.673455 16.849455 81.082182 51.2 147.409455 124.322909 184.273454 212.107636 7.354182 14.615273 0 36.584727-14.754909 43.892364-14.754909 7.307636-36.864 0-44.218181-14.661818a435.991273 435.991273 0 0 0-188.229819-196.421818l-106.589091 94.021818-7.354181 117.015272c0 7.354182 0 14.661818-7.400728 14.661819l-103.191272 102.4c-7.354182 7.307636-14.708364 7.307636-22.109091 7.307636-14.754909 0-22.109091-7.307636-29.463273-21.922909L494.726982 256l-88.436364-36.584727c-7.354182 0-14.754909-7.307636-14.754909-14.615273L375.2448 152.064C260.5568 231.563636 185.199709 363.473455 185.199709 512c0 14.615273-14.754909 36.584727-36.864 36.584727-22.109091 0-36.864-14.615273-36.864-36.584727 0-138.984727 51.572364-263.307636 147.409455-358.4C354.7648 58.507636 487.419345 0 620.073891 0z m7.400728 73.169455a441.018182 441.018182 0 0 0-201.355637 48.407272l17.082182 46.638546 95.837091 43.892363c7.354182 0 14.708364 7.307636 14.708364 14.615273l51.618909 153.6 66.327273-65.815273 7.354181-117.015272c0-7.354182 7.400727-14.661818 7.400728-21.969455l94.72-75.217454a446.743273 446.743273 0 0 0-153.693091-27.136z" fill="#2c2c2c" p-id="11356"></path></svg>